<?xml version="1.0" encoding="UTF-8"?>
<svg xmlns="http://www.w3.org/2000/svg" xmlns:xlink="http://www.w3.org/1999/xlink" width="24px" height="24px" viewBox="0 0 24 24" version="1.1">
<g id="surface1">
<path style=" stroke:none;fill-rule:evenodd;fill:rgb(0%,0%,0%);fill-opacity:1;" d="M 12.589844 0.257812 C 12.4375 0.09375 12.222656 0 12 0 C 11.777344 0 11.5625 0.09375 11.410156 0.257812 L 7.199219 4.851562 C 4.289062 8.027344 4.105469 12.847656 6.765625 16.234375 L 11.199219 21.875 L 11.199219 24 L 12.800781 24 L 12.800781 21.875 L 17.230469 16.234375 C 19.894531 12.847656 19.710938 8.027344 16.800781 4.851562 Z M 12.800781 4.800781 C 12.800781 4.359375 12.441406 4 12 4 C 11.558594 4 11.199219 4.359375 11.199219 4.800781 L 11.199219 16.800781 C 11.199219 17.242188 11.558594 17.601562 12 17.601562 C 12.441406 17.601562 12.800781 17.242188 12.800781 16.800781 Z M 12.800781 4.800781 "/>
</g>
</svg>
