<?xml version="1.0" encoding="UTF-8"?>
<svg xmlns="http://www.w3.org/2000/svg" xmlns:xlink="http://www.w3.org/1999/xlink" width="24px" height="24px" viewBox="0 0 24 24" version="1.1">
<g id="surface1">
<path style=" stroke:none;fill-rule:nonzero;fill:rgb(0%,0%,0%);fill-opacity:1;" d="M 16.40625 5.675781 C 16.289062 5.675781 16.210938 5.691406 16.132812 5.710938 L 16.132812 5.722656 L 16.144531 5.722656 C 16.199219 5.824219 16.289062 5.902344 16.359375 5.996094 C 16.414062 6.101562 16.460938 6.210938 16.511719 6.316406 L 16.527344 6.300781 C 16.621094 6.234375 16.667969 6.128906 16.667969 5.96875 C 16.628906 5.921875 16.621094 5.871094 16.585938 5.828125 C 16.546875 5.761719 16.460938 5.726562 16.40625 5.675781 Z M 5.769531 18.871094 L 4.84375 18.871094 C 4.8125 17.308594 4.71875 15.839844 4.574219 14.460938 L 4.566406 14.460938 L 3.15625 18.871094 L 2.449219 18.871094 L 1.050781 14.460938 L 1.039062 14.460938 C 0.9375 15.78125 0.871094 17.253906 0.84375 18.871094 L 0 18.871094 C 0.0546875 16.902344 0.191406 15.058594 0.410156 13.339844 L 1.558594 13.339844 L 2.894531 17.402344 L 2.902344 17.402344 L 4.25 13.339844 L 5.34375 13.339844 C 5.585938 15.355469 5.730469 17.199219 5.773438 18.871094 Z M 9.785156 14.789062 C 9.410156 16.835938 8.910156 18.324219 8.296875 19.25 C 7.8125 19.964844 7.285156 20.324219 6.710938 20.324219 C 6.558594 20.324219 6.371094 20.277344 6.144531 20.183594 L 6.144531 19.691406 C 6.257812 19.707031 6.386719 19.71875 6.53125 19.71875 C 6.800781 19.71875 7.015625 19.640625 7.179688 19.496094 C 7.375 19.316406 7.472656 19.113281 7.472656 18.890625 C 7.472656 18.734375 7.398438 18.421875 7.242188 17.945312 L 6.230469 14.789062 L 7.140625 14.789062 L 7.867188 17.148438 C 8.03125 17.6875 8.101562 18.058594 8.070312 18.273438 C 8.472656 17.210938 8.75 16.046875 8.90625 14.789062 Z M 22.113281 18.871094 L 19.480469 18.871094 L 19.480469 13.339844 L 20.367188 13.339844 L 20.367188 18.191406 L 22.113281 18.191406 Z M 18.792969 19.003906 L 17.777344 18.503906 C 17.867188 18.429688 17.953125 18.347656 18.03125 18.253906 C 18.464844 17.75 18.679688 16.996094 18.679688 16.003906 C 18.679688 14.171875 17.960938 13.257812 16.523438 13.257812 C 15.820312 13.257812 15.269531 13.488281 14.875 13.953125 C 14.445312 14.460938 14.226562 15.210938 14.226562 16.199219 C 14.226562 17.171875 14.417969 17.882812 14.800781 18.339844 C 15.152344 18.746094 15.679688 18.953125 16.386719 18.953125 C 16.648438 18.953125 16.890625 18.921875 17.109375 18.855469 L 18.433594 19.628906 L 18.796875 19.003906 Z M 15.5 17.761719 C 15.273438 17.402344 15.164062 16.824219 15.164062 16.027344 C 15.164062 14.632812 15.585938 13.9375 16.433594 13.9375 C 16.875 13.9375 17.203125 14.105469 17.410156 14.4375 C 17.632812 14.800781 17.746094 15.371094 17.746094 16.160156 C 17.746094 17.5625 17.320312 18.269531 16.476562 18.269531 C 16.03125 18.269531 15.707031 18.101562 15.496094 17.769531 Z M 13.84375 17.339844 C 13.84375 17.808594 13.671875 18.195312 13.324219 18.492188 C 12.980469 18.792969 12.523438 18.945312 11.941406 18.945312 C 11.398438 18.945312 10.878906 18.773438 10.367188 18.429688 L 10.605469 17.953125 C 11.042969 18.171875 11.4375 18.28125 11.796875 18.28125 C 12.128906 18.28125 12.390625 18.207031 12.578125 18.0625 C 12.765625 17.914062 12.878906 17.707031 12.878906 17.445312 C 12.878906 17.117188 12.648438 16.835938 12.230469 16.601562 C 11.84375 16.386719 11.066406 15.945312 11.066406 15.945312 C 10.644531 15.636719 10.4375 15.308594 10.4375 14.765625 C 10.4375 14.316406 10.59375 13.957031 10.90625 13.683594 C 11.222656 13.402344 11.625 13.265625 12.125 13.265625 C 12.636719 13.265625 13.105469 13.402344 13.527344 13.675781 L 13.3125 14.152344 C 12.953125 14 12.597656 13.921875 12.25 13.921875 C 11.964844 13.921875 11.746094 13.992188 11.59375 14.128906 C 11.441406 14.265625 11.347656 14.4375 11.347656 14.652344 C 11.347656 14.980469 11.582031 15.261719 12.011719 15.503906 C 12.40625 15.71875 13.199219 16.171875 13.199219 16.171875 C 13.632812 16.476562 13.847656 16.804688 13.847656 17.339844 Z M 23.222656 11.484375 C 22.6875 11.472656 22.273438 11.527344 21.925781 11.675781 C 21.828125 11.714844 21.667969 11.714844 21.652344 11.839844 C 21.707031 11.894531 21.714844 11.980469 21.761719 12.054688 C 21.84375 12.1875 21.980469 12.367188 22.109375 12.460938 C 22.25 12.570312 22.390625 12.679688 22.535156 12.773438 C 22.796875 12.933594 23.089844 13.027344 23.347656 13.1875 C 23.492188 13.28125 23.640625 13.402344 23.785156 13.5 C 23.859375 13.550781 23.90625 13.640625 24 13.671875 L 24 13.652344 C 23.953125 13.59375 23.941406 13.507812 23.894531 13.4375 C 23.828125 13.371094 23.761719 13.3125 23.695312 13.246094 C 23.5 12.984375 23.261719 12.757812 23 12.570312 C 22.785156 12.425781 22.316406 12.222656 22.230469 11.976562 L 22.21875 11.960938 C 22.363281 11.949219 22.535156 11.894531 22.675781 11.855469 C 22.902344 11.796875 23.113281 11.808594 23.347656 11.75 C 23.453125 11.722656 23.558594 11.691406 23.667969 11.65625 L 23.667969 11.597656 C 23.546875 11.476562 23.457031 11.3125 23.332031 11.199219 C 22.992188 10.90625 22.617188 10.617188 22.230469 10.378906 C 22.019531 10.242188 21.753906 10.15625 21.53125 10.042969 C 21.453125 10.003906 21.316406 9.984375 21.273438 9.917969 C 21.152344 9.769531 21.082031 9.578125 20.996094 9.402344 C 20.804688 9.035156 20.617188 8.628906 20.449219 8.238281 C 20.328125 7.976562 20.257812 7.71875 20.109375 7.476562 C 19.421875 6.339844 18.671875 5.652344 17.523438 4.976562 C 17.277344 4.835938 16.980469 4.777344 16.667969 4.703125 C 16.5 4.695312 16.335938 4.683594 16.167969 4.675781 C 16.058594 4.628906 15.953125 4.503906 15.859375 4.441406 C 15.476562 4.199219 14.492188 3.679688 14.214844 4.367188 C 14.035156 4.804688 14.480469 5.230469 14.636719 5.449219 C 14.75 5.605469 14.894531 5.777344 14.976562 5.949219 C 15.023438 6.066406 15.035156 6.1875 15.082031 6.308594 C 15.1875 6.601562 15.289062 6.929688 15.429688 7.203125 C 15.503906 7.34375 15.582031 7.492188 15.675781 7.617188 C 15.730469 7.691406 15.824219 7.722656 15.84375 7.84375 C 15.75 7.980469 15.742188 8.179688 15.691406 8.34375 C 15.449219 9.101562 15.542969 10.035156 15.882812 10.59375 C 15.992188 10.761719 16.246094 11.128906 16.585938 10.988281 C 16.886719 10.867188 16.820312 10.488281 16.90625 10.152344 C 16.925781 10.070312 16.914062 10.019531 16.953125 9.964844 L 16.953125 9.980469 C 17.050781 10.167969 17.144531 10.347656 17.230469 10.535156 C 17.433594 10.863281 17.796875 11.203125 18.097656 11.429688 C 18.257812 11.550781 18.382812 11.757812 18.582031 11.832031 L 18.582031 11.8125 L 18.566406 11.8125 C 18.523438 11.753906 18.46875 11.726562 18.414062 11.679688 C 18.292969 11.558594 18.160156 11.410156 18.0625 11.277344 C 17.785156 10.902344 17.535156 10.488281 17.316406 10.0625 C 17.207031 9.851562 17.113281 9.625 17.027344 9.417969 C 16.988281 9.339844 16.988281 9.21875 16.921875 9.179688 C 16.820312 9.324219 16.671875 9.449219 16.601562 9.632812 C 16.472656 9.917969 16.460938 10.273438 16.410156 10.640625 C 16.386719 10.648438 16.398438 10.640625 16.386719 10.65625 C 16.171875 10.601562 16.097656 10.382812 16.019531 10.195312 C 15.816406 9.71875 15.785156 8.957031 15.957031 8.410156 C 16.003906 8.269531 16.203125 7.828125 16.125 7.695312 C 16.082031 7.566406 15.949219 7.492188 15.878906 7.390625 C 15.789062 7.265625 15.699219 7.105469 15.636719 6.964844 C 15.476562 6.589844 15.398438 6.175781 15.222656 5.800781 C 15.144531 5.628906 15.003906 5.449219 14.890625 5.289062 C 14.761719 5.109375 14.621094 4.980469 14.523438 4.769531 C 14.488281 4.695312 14.441406 4.574219 14.496094 4.496094 C 14.507812 4.441406 14.535156 4.421875 14.589844 4.40625 C 14.675781 4.332031 14.925781 4.425781 15.011719 4.46875 C 15.257812 4.566406 15.464844 4.660156 15.671875 4.800781 C 15.765625 4.867188 15.867188 4.992188 15.988281 5.027344 L 16.128906 5.027344 C 16.34375 5.074219 16.582031 5.039062 16.78125 5.101562 C 17.136719 5.214844 17.457031 5.378906 17.746094 5.558594 C 18.621094 6.117188 19.339844 6.90625 19.828125 7.847656 C 19.910156 8 19.945312 8.140625 20.019531 8.300781 C 20.15625 8.632812 20.332031 8.964844 20.472656 9.28125 C 20.613281 9.597656 20.746094 9.917969 20.949219 10.179688 C 21.050781 10.320312 21.449219 10.394531 21.632812 10.464844 C 21.765625 10.527344 21.972656 10.582031 22.089844 10.652344 C 22.320312 10.792969 22.546875 10.953125 22.761719 11.109375 C 22.871094 11.183594 23.203125 11.351562 23.222656 11.484375 Z M 23.222656 11.484375 "/>
</g>
</svg>
