<?xml version="1.0" encoding="UTF-8"?>
<svg xmlns="http://www.w3.org/2000/svg" xmlns:xlink="http://www.w3.org/1999/xlink" width="24px" height="24px" viewBox="0 0 24 24" version="1.1">
<g id="surface1">
<path style=" stroke:none;fill-rule:nonzero;fill:rgb(0%,0%,0%);fill-opacity:1;" d="M 12 21.984375 C 11.726562 21.984375 11.46875 21.910156 11.226562 21.78125 L 8.789062 20.335938 C 8.425781 20.132812 8.605469 20.058594 8.71875 20.019531 C 9.214844 19.855469 9.304688 19.820312 9.816406 19.527344 C 9.875 19.492188 9.945312 19.507812 10.003906 19.546875 L 11.871094 20.664062 C 11.945312 20.699219 12.039062 20.699219 12.09375 20.664062 L 19.414062 16.429688 C 19.488281 16.390625 19.523438 16.316406 19.523438 16.226562 L 19.523438 7.769531 C 19.523438 7.675781 19.488281 7.601562 19.414062 7.566406 L 12.09375 3.347656 C 12.019531 3.3125 11.929688 3.3125 11.871094 3.347656 L 4.550781 7.566406 C 4.480469 7.601562 4.441406 7.695312 4.441406 7.765625 L 4.441406 16.222656 C 4.441406 16.296875 4.480469 16.390625 4.550781 16.425781 L 6.550781 17.582031 C 7.632812 18.132812 8.3125 17.488281 8.3125 16.847656 L 8.3125 8.503906 C 8.3125 8.390625 8.40625 8.28125 8.535156 8.28125 L 9.46875 8.28125 C 9.578125 8.28125 9.691406 8.371094 9.691406 8.503906 L 9.691406 16.847656 C 9.691406 18.296875 8.902344 19.144531 7.527344 19.144531 C 7.105469 19.144531 6.773438 19.144531 5.839844 18.683594 L 3.914062 17.585938 C 3.4375 17.304688 3.140625 16.796875 3.140625 16.242188 L 3.140625 7.785156 C 3.140625 7.234375 3.433594 6.722656 3.914062 6.445312 L 11.230469 2.210938 C 11.710938 1.953125 12.289062 1.953125 12.773438 2.210938 L 20.089844 6.445312 C 20.570312 6.722656 20.859375 7.234375 20.859375 7.785156 L 20.859375 16.242188 C 20.859375 16.792969 20.566406 17.308594 20.089844 17.585938 L 12.773438 21.820312 C 12.53125 21.929688 12.257812 21.984375 12 21.984375 Z M 14.257812 16.167969 C 11.046875 16.167969 10.386719 14.699219 10.386719 13.453125 C 10.386719 13.34375 10.476562 13.234375 10.605469 13.234375 L 11.558594 13.234375 C 11.671875 13.234375 11.761719 13.308594 11.761719 13.417969 C 11.90625 14.390625 12.328125 14.867188 14.273438 14.867188 C 15.816406 14.867188 16.476562 14.515625 16.476562 13.691406 C 16.476562 13.214844 16.292969 12.867188 13.890625 12.628906 C 11.890625 12.429688 10.644531 11.984375 10.644531 10.390625 C 10.644531 8.90625 11.890625 8.023438 13.984375 8.023438 C 16.328125 8.023438 17.484375 8.835938 17.632812 10.59375 C 17.628906 10.652344 17.609375 10.710938 17.574219 10.757812 C 17.539062 10.792969 17.484375 10.832031 17.429688 10.832031 L 16.476562 10.832031 C 16.378906 10.828125 16.296875 10.761719 16.273438 10.667969 C 16.054688 9.65625 15.484375 9.328125 13.984375 9.328125 C 12.292969 9.328125 12.09375 9.914062 12.09375 10.355469 C 12.09375 10.886719 12.328125 11.050781 14.605469 11.34375 C 16.863281 11.636719 17.925781 12.058594 17.925781 13.636719 C 17.90625 15.253906 16.585938 16.167969 14.257812 16.167969 Z M 14.257812 16.167969 "/>
</g>
</svg>
