<?xml version="1.0" encoding="UTF-8"?>
<svg xmlns="http://www.w3.org/2000/svg" xmlns:xlink="http://www.w3.org/1999/xlink" width="24px" height="24px" viewBox="0 0 24 24" version="1.1">
<g id="surface1">
<path style=" stroke:none;fill-rule:nonzero;fill:rgb(0%,0%,0%);fill-opacity:1;" d="M 7.011719 10.207031 L 6.066406 10.207031 L 5.550781 12.855469 L 6.390625 12.855469 C 6.945312 12.855469 7.359375 12.75 7.632812 12.539062 C 7.902344 12.332031 8.085938 11.980469 8.179688 11.492188 C 8.273438 11.023438 8.230469 10.691406 8.058594 10.496094 C 7.882812 10.304688 7.535156 10.207031 7.011719 10.207031 Z M 12 5.6875 C 5.371094 5.6875 0 8.515625 0 12 C 0 15.484375 5.371094 18.3125 12 18.3125 C 18.628906 18.3125 24 15.484375 24 12 C 24 8.515625 18.628906 5.6875 12 5.6875 Z M 8.738281 13.140625 C 8.480469 13.390625 8.164062 13.578125 7.824219 13.691406 C 7.488281 13.796875 7.058594 13.855469 6.539062 13.855469 L 5.355469 13.855469 L 5.03125 15.535156 L 3.652344 15.535156 L 4.882812 9.210938 L 7.53125 9.210938 C 8.328125 9.210938 8.910156 9.417969 9.277344 9.835938 C 9.640625 10.253906 9.753906 10.839844 9.605469 11.589844 C 9.550781 11.886719 9.445312 12.171875 9.300781 12.4375 C 9.15625 12.691406 8.972656 12.925781 8.738281 13.140625 Z M 12.765625 13.855469 L 13.308594 11.054688 C 13.371094 10.738281 13.347656 10.519531 13.238281 10.402344 C 13.132812 10.289062 12.902344 10.230469 12.550781 10.230469 L 11.460938 10.230469 L 10.757812 13.855469 L 9.386719 13.855469 L 10.617188 7.527344 L 11.984375 7.527344 L 11.65625 9.210938 L 12.875 9.210938 C 13.644531 9.210938 14.171875 9.34375 14.460938 9.609375 C 14.753906 9.878906 14.839844 10.3125 14.726562 10.910156 L 14.152344 13.855469 Z M 20.359375 11.589844 C 20.304688 11.886719 20.203125 12.171875 20.054688 12.4375 C 19.914062 12.691406 19.726562 12.925781 19.496094 13.140625 C 19.234375 13.386719 18.921875 13.578125 18.578125 13.691406 C 18.242188 13.796875 17.8125 13.855469 17.292969 13.855469 L 16.113281 13.855469 L 15.785156 15.535156 L 14.40625 15.535156 L 15.636719 9.210938 L 18.285156 9.210938 C 19.082031 9.210938 19.664062 9.417969 20.03125 9.839844 C 20.394531 10.253906 20.507812 10.839844 20.359375 11.589844 Z M 17.765625 10.207031 L 16.824219 10.207031 L 16.308594 12.855469 L 17.144531 12.855469 C 17.703125 12.855469 18.117188 12.75 18.386719 12.539062 C 18.660156 12.332031 18.84375 11.980469 18.9375 11.492188 C 19.03125 11.023438 18.988281 10.691406 18.8125 10.496094 C 18.640625 10.304688 18.289062 10.207031 17.765625 10.207031 Z M 17.765625 10.207031 "/>
</g>
</svg>
