<?xml version="1.0" encoding="UTF-8"?>
<svg xmlns="http://www.w3.org/2000/svg" xmlns:xlink="http://www.w3.org/1999/xlink" width="24px" height="24px" viewBox="0 0 24 24" version="1.1">
<g id="surface1">
<path style=" stroke:none;fill-rule:nonzero;fill:rgb(0%,0%,0%);fill-opacity:1;" d="M 11.769531 11.238281 L 9.957031 11.238281 L 9.957031 8.203125 L 12.109375 8.203125 C 13.277344 8.203125 13.941406 8.722656 13.941406 9.667969 C 13.941406 10.675781 13.167969 11.238281 11.769531 11.238281 Z M 12.09375 12.445312 L 9.957031 12.445312 L 9.957031 15.792969 L 12.1875 15.792969 C 13.648438 15.792969 14.421875 15.210938 14.421875 14.109375 C 14.421875 13.007812 13.625 12.445312 12.09375 12.445312 Z M 24 11.390625 L 24 12.609375 C 22.871094 12.714844 22.183594 13.550781 21.773438 14.875 C 21.367188 16.195312 21.3125 17.8125 21.355469 19.0625 C 21.398438 20.363281 20.386719 21.5625 19.015625 21.5625 L 4.984375 21.5625 C 3.613281 21.5625 2.601562 20.363281 2.648438 19.0625 C 2.691406 17.8125 2.636719 16.195312 2.226562 14.875 C 1.816406 13.550781 1.128906 12.714844 0 12.609375 L 0 11.390625 C 1.128906 11.28125 1.820312 10.445312 2.226562 9.121094 C 2.636719 7.804688 2.691406 6.183594 2.648438 4.9375 C 2.601562 3.636719 3.613281 2.4375 4.984375 2.4375 L 19.015625 2.4375 C 20.386719 2.4375 21.398438 3.636719 21.355469 4.9375 C 21.3125 6.183594 21.367188 7.804688 21.773438 9.121094 C 22.183594 10.445312 22.871094 11.28125 24 11.390625 Z M 16.074219 14.207031 C 16.074219 12.851562 15.121094 11.875 13.703125 11.71875 L 13.703125 11.660156 C 14.746094 11.492188 15.5625 10.527344 15.5625 9.449219 C 15.5625 7.910156 14.347656 6.910156 12.5 6.910156 L 8.339844 6.910156 L 8.339844 17.082031 L 12.519531 17.082031 C 14.738281 17.082031 16.074219 15.996094 16.074219 14.207031 Z M 16.074219 14.207031 "/>
</g>
</svg>
