<?xml version="1.0" encoding="UTF-8"?>
<svg xmlns="http://www.w3.org/2000/svg" xmlns:xlink="http://www.w3.org/1999/xlink" width="24px" height="24px" viewBox="0 0 24 24" version="1.1">
<g id="surface1">
<path style="fill:none;stroke-width:1;stroke-linecap:butt;stroke-linejoin:miter;stroke:rgb(0%,0%,0%);stroke-opacity:1;stroke-miterlimit:4;" d="M 8.5 0.5 L 6.5 2.5 M 6.5 2.5 L 8.5 4.5 M 6.5 2.5 L 9.5 2.5 C 11.15625 2.5 12.5 3.84375 12.5 5.5 L 12.5 7.5 M 2.5 10.5 C 1.394531 10.5 0.5 11.394531 0.5 12.5 C 0.5 13.605469 1.394531 14.5 2.5 14.5 C 3.605469 14.5 4.5 13.605469 4.5 12.5 C 4.5 11.394531 3.605469 10.5 2.5 10.5 Z M 2.5 10.5 L 2.5 4.5 M 2.5 4.5 C 3.605469 4.5 4.5 3.605469 4.5 2.5 C 4.5 1.394531 3.605469 0.5 2.5 0.5 C 1.394531 0.5 0.5 1.394531 0.5 2.5 C 0.5 3.605469 1.394531 4.5 2.5 4.5 Z M 12.5 7.5 C 11.394531 7.5 10.5 8.394531 10.5 9.5 C 10.5 10.605469 11.394531 11.5 12.5 11.5 C 13.605469 11.5 14.5 10.605469 14.5 9.5 C 14.5 8.394531 13.605469 7.5 12.5 7.5 Z M 12.5 7.5 "/>
</g>
</svg>
