<?xml version="1.0" encoding="UTF-8"?>
<svg xmlns="http://www.w3.org/2000/svg" xmlns:xlink="http://www.w3.org/1999/xlink" width="24px" height="24px" viewBox="0 0 24 24" version="1.1">
<g id="surface1">
<path style=" stroke:none;fill-rule:nonzero;fill:#000;fill-opacity:1;" d="M 3.601562 0 L 20.398438 0 C 22.386719 0 24 1.613281 24 3.601562 L 24 20.398438 C 24 22.386719 22.386719 24 20.398438 24 L 3.601562 24 C 1.613281 24 0 22.386719 0 20.398438 L 0 3.601562 C 0 1.613281 1.613281 0 3.601562 0 Z M 3.601562 0 "/>
<path style=" stroke:none;fill-rule:nonzero;fill:#fff;fill-opacity:1;" d="M 15.1875 17.34375 C 15.65625 18.140625 16.3125 18.703125 17.390625 18.703125 C 18.328125 18.703125 18.9375 18.234375 18.9375 17.578125 C 18.9375 16.828125 18.328125 16.546875 17.296875 16.078125 L 16.734375 15.84375 C 15.09375 15.140625 14.015625 14.296875 14.015625 12.46875 C 14.015625 10.78125 15.28125 9.46875 17.296875 9.46875 C 18.75 9.46875 19.78125 9.984375 20.484375 11.296875 L 18.75 12.421875 C 18.375 11.71875 17.953125 11.4375 17.296875 11.4375 C 16.640625 11.4375 16.21875 11.859375 16.21875 12.421875 C 16.21875 13.078125 16.640625 13.359375 17.625 13.78125 L 18.1875 14.015625 C 20.109375 14.859375 21.1875 15.65625 21.1875 17.578125 C 21.1875 19.59375 19.59375 20.71875 17.4375 20.71875 C 15.328125 20.71875 13.96875 19.734375 13.3125 18.421875 Z M 7.21875 17.53125 C 7.59375 18.140625 7.875 18.703125 8.671875 18.703125 C 9.421875 18.703125 9.890625 18.421875 9.890625 17.296875 L 9.890625 9.515625 L 12.140625 9.515625 L 12.140625 17.203125 C 12.140625 19.546875 10.78125 20.578125 8.765625 20.578125 C 6.9375 20.578125 5.90625 19.640625 5.390625 18.515625 Z M 7.21875 17.53125 "/>
</g>
</svg>
