<?xml version="1.0" encoding="UTF-8"?>
<svg xmlns="http://www.w3.org/2000/svg" xmlns:xlink="http://www.w3.org/1999/xlink" width="24px" height="24px" viewBox="0 0 24 24" version="1.1">
<g id="surface1">
<path style=" stroke:none;fill-rule:nonzero;fill:rgb(26.666667%,26.666667%,26.666667%);fill-opacity:1;" d="M 15.488281 16.011719 C 15.535156 16.015625 15.585938 16.019531 15.636719 16.019531 C 16.371094 16.023438 17.105469 16.015625 17.835938 16.023438 C 17.996094 16.027344 18.046875 15.972656 18.039062 15.816406 C 18.027344 15.617188 18.035156 15.417969 18.035156 15.167969 C 18.867188 15.78125 19.671875 16.371094 20.496094 16.980469 C 19.675781 17.582031 18.871094 18.175781 18.035156 18.792969 C 18.035156 18.558594 18.035156 18.367188 18.035156 18.171875 C 18.035156 17.921875 18.035156 17.921875 17.792969 17.921875 C 13.109375 17.921875 8.421875 17.921875 3.738281 17.921875 C 3.511719 17.921875 3.511719 17.921875 3.511719 17.695312 C 3.511719 17.199219 3.515625 16.707031 3.507812 16.210938 C 3.503906 16.050781 3.554688 16.015625 3.707031 16.015625 C 6.226562 16.023438 8.746094 16.023438 11.265625 16.019531 C 12.558594 16.015625 13.578125 15.480469 14.25 14.367188 C 15.46875 12.355469 14.199219 9.722656 11.867188 9.386719 C 10.066406 9.125 8.394531 10.332031 8.089844 12.164062 C 8.058594 12.351562 8.054688 12.550781 8.035156 12.777344 C 8.332031 12.738281 8.597656 12.703125 8.898438 12.660156 C 8.425781 13.578125 7.96875 14.460938 7.507812 15.355469 C 6.796875 14.625 6.097656 13.902344 5.414062 13.199219 C 5.585938 13.167969 5.8125 13.136719 6.039062 13.089844 C 6.082031 13.078125 6.144531 13.011719 6.140625 12.972656 C 6.128906 12.492188 6.164062 12.019531 6.257812 11.546875 C 6.257812 11.535156 6.253906 11.515625 6.25 11.488281 C 5.789062 11.410156 5.367188 11.246094 4.980469 10.980469 C 4.039062 10.328125 3.550781 9.117188 3.78125 8.015625 C 4.03125 6.8125 4.9375 5.914062 6.113281 5.691406 C 6.871094 5.546875 7.578125 5.683594 8.230469 6.085938 C 8.347656 6.15625 8.417969 6.167969 8.492188 6.042969 C 8.539062 5.972656 8.605469 5.914062 8.679688 5.824219 C 8.777344 6.207031 8.867188 6.566406 8.953125 6.925781 C 8.984375 7.046875 9.007812 7.171875 9.042969 7.289062 C 9.082031 7.417969 9.042969 7.476562 8.90625 7.46875 C 8.511719 7.441406 8.117188 7.414062 7.722656 7.390625 C 7.625 7.382812 7.527344 7.371094 7.402344 7.359375 C 7.5 7.238281 7.585938 7.128906 7.683594 7.007812 C 7.472656 6.84375 7.238281 6.761719 6.992188 6.722656 C 5.808594 6.53125 4.769531 7.4375 4.792969 8.632812 C 4.808594 9.554688 5.585938 10.375 6.5 10.453125 C 6.617188 10.460938 6.660156 10.402344 6.703125 10.3125 C 7.351562 9.070312 8.328125 8.191406 9.65625 7.734375 C 12.726562 6.671875 15.933594 8.570312 16.523438 11.675781 C 16.816406 13.207031 16.484375 14.601562 15.554688 15.855469 C 15.53125 15.890625 15.507812 15.925781 15.484375 15.960938 C 15.480469 15.96875 15.488281 15.984375 15.492188 16.011719 Z M 15.488281 16.011719 "/>
</g>
</svg>
