<?xml version="1.0" encoding="UTF-8"?>
<svg xmlns="http://www.w3.org/2000/svg" xmlns:xlink="http://www.w3.org/1999/xlink" width="24px" height="24px" viewBox="0 0 24 24" version="1.1">
<g id="surface1">
<path style=" stroke:none;fill-rule:nonzero;fill:#000;fill-opacity:1;" d="M 3.601562 0 L 20.398438 0 C 22.386719 0 24 1.613281 24 3.601562 L 24 20.398438 C 24 22.386719 22.386719 24 20.398438 24 L 3.601562 24 C 1.613281 24 0 22.386719 0 20.398438 L 0 3.601562 C 0 1.613281 1.613281 0 3.601562 0 Z M 3.601562 0 "/>
<path style=" stroke:none;fill-rule:nonzero;fill:#fff;fill-opacity:1;" d="M 10.921875 13.3125 L 13.921875 13.3125 L 13.921875 11.390625 L 5.53125 11.390625 L 5.53125 13.3125 L 8.53125 13.3125 L 8.53125 21.890625 L 10.921875 21.890625 Z M 14.859375 21.421875 C 15.238281 21.617188 15.703125 21.765625 16.21875 21.863281 C 16.734375 21.960938 17.296875 22.007812 17.859375 22.007812 C 18.421875 22.007812 18.9375 21.957031 19.453125 21.847656 C 19.96875 21.742188 20.390625 21.5625 20.765625 21.332031 C 21.144531 21.085938 21.46875 20.769531 21.65625 20.347656 C 21.84375 19.925781 21.988281 19.457031 21.988281 18.847656 C 21.988281 18.421875 21.921875 18.050781 21.796875 17.722656 C 21.671875 17.394531 21.488281 17.113281 21.234375 16.878906 C 20.996094 16.632812 20.71875 16.410156 20.390625 16.222656 C 20.0625 16.035156 19.6875 15.839844 19.265625 15.660156 C 18.957031 15.535156 18.703125 15.414062 18.421875 15.289062 C 18.179688 15.167969 17.96875 15.046875 17.8125 14.925781 C 17.640625 14.796875 17.507812 14.667969 17.414062 14.53125 C 17.320312 14.390625 17.273438 14.234375 17.273438 14.0625 C 17.273438 13.902344 17.316406 13.757812 17.398438 13.625 C 17.484375 13.496094 17.601562 13.386719 17.75 13.292969 C 17.902344 13.199219 18.089844 13.128906 18.3125 13.078125 C 18.535156 13.027344 18.777344 13.003906 19.0625 13.003906 C 19.261719 13.003906 19.46875 13.019531 19.671875 13.046875 C 19.890625 13.078125 20.109375 13.121094 20.328125 13.183594 C 20.550781 13.242188 20.765625 13.320312 20.984375 13.414062 C 21.191406 13.507812 21.382812 13.613281 21.546875 13.734375 L 21.546875 11.53125 C 21.191406 11.398438 20.796875 11.292969 20.375 11.226562 C 19.953125 11.164062 19.484375 11.128906 18.921875 11.128906 C 18.359375 11.128906 17.84375 11.191406 17.328125 11.308594 C 16.8125 11.425781 16.390625 11.613281 16.015625 11.871094 C 15.636719 12.125 15.359375 12.433594 15.125 12.855469 C 14.90625 13.25 14.796875 13.699219 14.796875 14.261719 C 14.796875 14.964844 15 15.574219 15.40625 16.042969 C 15.8125 16.558594 16.4375 16.933594 17.234375 17.308594 C 17.558594 17.4375 17.84375 17.570312 18.125 17.695312 C 18.40625 17.824219 18.640625 17.953125 18.828125 18.089844 C 19.03125 18.226562 19.191406 18.375 19.296875 18.535156 C 19.414062 18.695312 19.476562 18.882812 19.476562 19.097656 C 19.476562 19.25 19.441406 19.390625 19.367188 19.519531 C 19.296875 19.652344 19.1875 19.765625 19.035156 19.859375 C 18.886719 19.953125 18.703125 20.027344 18.472656 20.082031 C 18.253906 20.132812 18.003906 20.164062 17.675781 20.164062 C 17.160156 20.164062 16.644531 20.074219 16.175781 19.894531 C 15.660156 19.71875 15.191406 19.449219 14.859375 19.171875 Z M 14.859375 21.421875 "/>
</g>
</svg>
