<?xml version="1.0" encoding="UTF-8"?>
<svg xmlns="http://www.w3.org/2000/svg" xmlns:xlink="http://www.w3.org/1999/xlink" width="24px" height="24px" viewBox="0 0 24 24" version="1.1">
<g id="surface1">
<path style=" stroke:none;fill-rule:nonzero;fill:rgb(86.666667%,29.803922%,20.784314%);fill-opacity:1;" d="M 29.472656 14.753906 L 17.246094 2.527344 C 16.910156 2.1875 16.449219 2 15.972656 2 C 15.492188 2 15.035156 2.1875 14.695312 2.527344 L 12.15625 5.066406 L 15.378906 8.285156 C 16.152344 8.023438 17.011719 8.222656 17.585938 8.804688 C 18.164062 9.386719 18.359375 10.242188 18.089844 11.015625 L 21.191406 14.117188 C 22.144531 13.789062 23.199219 14.171875 23.722656 15.035156 C 24.242188 15.902344 24.089844 17.011719 23.355469 17.703125 C 22.621094 18.394531 21.5 18.480469 20.671875 17.910156 C 19.839844 17.335938 19.519531 16.261719 19.90625 15.328125 L 17.011719 12.433594 L 17.011719 20.050781 C 17.914062 20.496094 18.382812 21.515625 18.136719 22.492188 C 17.886719 23.46875 16.992188 24.140625 15.984375 24.105469 C 14.976562 24.070312 14.128906 23.335938 13.953125 22.34375 C 13.773438 21.351562 14.3125 20.371094 15.246094 19.988281 L 15.246094 12.300781 C 14.71875 12.082031 14.296875 11.664062 14.078125 11.136719 C 13.859375 10.605469 13.859375 10.011719 14.082031 9.484375 L 10.910156 6.3125 L 2.527344 14.699219 C 2.1875 15.039062 2 15.496094 2 15.976562 C 2 16.453125 2.1875 16.914062 2.527344 17.25 L 14.753906 29.472656 C 15.089844 29.8125 15.550781 30 16.027344 30 C 16.507812 30 16.964844 29.8125 17.304688 29.472656 L 29.472656 17.300781 C 29.8125 16.960938 30 16.503906 30 16.023438 C 30 15.546875 29.8125 15.085938 29.472656 14.75 "/>
<path style=" stroke:none;fill-rule:nonzero;fill:rgb(100%,100%,100%);fill-opacity:1;" d="M 12.15625 5.066406 L 15.378906 8.285156 C 16.152344 8.023438 17.011719 8.222656 17.585938 8.804688 C 18.164062 9.386719 18.359375 10.242188 18.089844 11.015625 L 21.191406 14.117188 C 22.144531 13.789062 23.199219 14.171875 23.722656 15.035156 C 24.242188 15.902344 24.089844 17.011719 23.355469 17.703125 C 22.621094 18.394531 21.5 18.480469 20.671875 17.910156 C 19.839844 17.335938 19.519531 16.261719 19.90625 15.328125 L 17.011719 12.433594 L 17.011719 20.050781 C 17.914062 20.496094 18.382812 21.515625 18.136719 22.492188 C 17.886719 23.46875 16.992188 24.140625 15.984375 24.105469 C 14.976562 24.070312 14.128906 23.335938 13.953125 22.34375 C 13.773438 21.351562 14.3125 20.371094 15.246094 19.988281 L 15.246094 12.300781 C 14.71875 12.082031 14.296875 11.664062 14.078125 11.136719 C 13.859375 10.605469 13.859375 10.011719 14.082031 9.484375 L 10.910156 6.3125 "/>
</g>
</svg>
