<?xml version="1.0" encoding="UTF-8"?>
<svg xmlns="http://www.w3.org/2000/svg" xmlns:xlink="http://www.w3.org/1999/xlink" width="24px" height="24px" viewBox="0 0 24 24" version="1.1">
<g id="surface1">
<path style=" stroke:none;fill-rule:nonzero;fill:rgb(0%,0%,0%);fill-opacity:1;" d="M 1.792969 0 C 1.570312 0 1.40625 0.179688 1.425781 0.398438 L 3.285156 21.257812 C 3.304688 21.476562 3.496094 21.707031 3.707031 21.765625 L 11.601562 23.957031 C 11.8125 24.015625 12.160156 24.015625 12.371094 23.957031 L 20.289062 21.761719 C 20.5 21.703125 20.691406 21.472656 20.710938 21.253906 L 22.574219 0.398438 C 22.59375 0.179688 22.429688 0 22.207031 0 Z M 18.613281 4.785156 C 18.59375 4.980469 18.566406 5.320312 18.546875 5.539062 L 18.496094 6.085938 C 18.476562 6.304688 18.449219 6.621094 18.433594 6.785156 C 18.417969 6.949219 18.40625 7.082031 18.402344 7.082031 C 18.398438 7.082031 18.21875 7.082031 17.996094 7.082031 L 12.402344 7.082031 C 12.179688 7.082031 12 7.082031 11.996094 7.082031 C 11.992188 7.082031 11.8125 7.082031 11.589844 7.082031 L 8.644531 7.082031 C 8.421875 7.082031 8.257812 7.261719 8.277344 7.484375 L 8.449219 9.402344 C 8.46875 9.625 8.667969 9.804688 8.886719 9.804688 L 11.589844 9.804688 C 11.8125 9.804688 11.992188 9.804688 11.996094 9.804688 C 12 9.804688 12.179688 9.804688 12.402344 9.804688 L 17.046875 9.804688 C 17.269531 9.804688 17.609375 9.804688 17.808594 9.804688 C 18.003906 9.804688 18.148438 9.964844 18.132812 10.160156 C 18.113281 10.355469 18.082031 10.695312 18.0625 10.914062 L 17.511719 17.109375 C 17.492188 17.328125 17.464844 17.609375 17.457031 17.734375 C 17.445312 17.855469 17.261719 18.007812 17.050781 18.066406 L 12.386719 19.359375 C 12.175781 19.417969 11.996094 19.464844 11.992188 19.464844 C 11.992188 19.46875 11.8125 19.417969 11.601562 19.359375 L 6.933594 18.066406 C 6.722656 18.007812 6.53125 17.777344 6.511719 17.558594 L 6.210938 14.1875 C 6.191406 13.964844 6.355469 13.785156 6.578125 13.785156 L 7.003906 13.785156 C 7.222656 13.785156 7.585938 13.785156 7.804688 13.785156 L 8.441406 13.785156 C 8.660156 13.785156 8.855469 13.964844 8.875 14.1875 L 8.996094 15.507812 C 9.015625 15.726562 9.203125 15.953125 9.417969 16.011719 L 11.601562 16.601562 C 11.8125 16.65625 11.988281 16.703125 11.988281 16.703125 C 11.992188 16.703125 12.164062 16.65625 12.378906 16.601562 L 14.566406 16.007812 C 14.777344 15.953125 14.96875 15.722656 14.988281 15.503906 L 15.226562 12.859375 C 15.246094 12.640625 15.082031 12.460938 14.859375 12.460938 L 12.402344 12.460938 C 12.179688 12.460938 12 12.460938 11.996094 12.460938 C 11.992188 12.460938 11.8125 12.460938 11.589844 12.460938 L 6.457031 12.460938 C 6.238281 12.460938 6.039062 12.28125 6.019531 12.0625 L 5.4375 5.539062 C 5.417969 5.320312 5.390625 4.980469 5.371094 4.785156 C 5.355469 4.585938 5.519531 4.425781 5.742188 4.425781 L 11.589844 4.425781 C 11.8125 4.425781 11.992188 4.425781 11.996094 4.425781 C 12 4.425781 12.179688 4.425781 12.402344 4.425781 L 18.242188 4.425781 C 18.464844 4.425781 18.628906 4.585938 18.613281 4.785156 Z M 18.613281 4.785156 "/>
</g>
</svg>
