<?xml version="1.0" encoding="UTF-8"?>
<svg xmlns="http://www.w3.org/2000/svg" xmlns:xlink="http://www.w3.org/1999/xlink" width="24px" height="24px" viewBox="0 0 24 24" version="1.1">
<g id="surface1">
<path style=" stroke:none;fill-rule:nonzero;fill:rgb(0%,39.607843%,66.27451%);fill-opacity:1;" d="M 21.757812 3.773438 L 17.433594 1.691406 C 16.933594 1.449219 16.335938 1.550781 15.941406 1.945312 L 1.785156 14.851562 C 1.425781 15.175781 1.402344 15.726562 1.726562 16.085938 C 1.742188 16.105469 1.761719 16.125 1.78125 16.144531 L 2.9375 17.191406 C 3.25 17.476562 3.71875 17.496094 4.054688 17.242188 L 21.105469 4.3125 C 21.371094 4.113281 21.722656 4.078125 22.015625 4.226562 C 22.3125 4.371094 22.5 4.675781 22.5 5.003906 L 22.5 4.953125 C 22.5 4.449219 22.210938 3.992188 21.757812 3.773438 Z M 21.757812 3.773438 "/>
<path style=" stroke:none;fill-rule:nonzero;fill:rgb(0%,47.843137%,80%);fill-opacity:1;" d="M 21.757812 20.226562 L 17.433594 22.308594 C 16.933594 22.550781 16.335938 22.449219 15.941406 22.058594 L 1.785156 9.148438 C 1.425781 8.824219 1.402344 8.273438 1.726562 7.914062 C 1.742188 7.894531 1.761719 7.875 1.78125 7.855469 L 2.9375 6.808594 C 3.25 6.523438 3.722656 6.5 4.058594 6.757812 L 21.105469 19.6875 C 21.371094 19.886719 21.722656 19.921875 22.015625 19.773438 C 22.3125 19.628906 22.5 19.324219 22.5 18.996094 L 22.5 19.050781 C 22.5 19.550781 22.210938 20.007812 21.757812 20.226562 Z M 21.757812 20.226562 "/>
<path style=" stroke:none;fill-rule:nonzero;fill:rgb(12.156863%,61.176471%,94.117647%);fill-opacity:1;" d="M 17.433594 22.308594 C 16.933594 22.550781 16.335938 22.449219 15.941406 22.058594 C 16.160156 22.273438 16.492188 22.339844 16.777344 22.21875 C 17.0625 22.101562 17.25 21.824219 17.25 21.511719 L 17.25 2.488281 C 17.25 2.175781 17.0625 1.894531 16.777344 1.777344 C 16.488281 1.65625 16.15625 1.722656 15.9375 1.945312 C 16.332031 1.550781 16.929688 1.449219 17.429688 1.691406 L 21.753906 3.769531 C 22.210938 3.984375 22.5 4.445312 22.5 4.949219 L 22.5 19.050781 C 22.5 19.554688 22.210938 20.015625 21.757812 20.230469 Z M 17.433594 22.308594 "/>
</g>
</svg>
